# xmcd CD database file
#
# Track frame offsets:
#	150
#	16293
#	39510
#	67060
#	92973
#	112160
#	139748
#	166615
#	185950
#
# Disc length: 2900 seconds
#
# Revision: 0
# Processed by: cddbd v1.4PL0 Copyright (c) Steve Scherf et al.
# Submitted via: CDex 1.51
#
DISCID=7f0b5209
DTITLE=The Bruce Foreman Quartet - Pardon Me!
DYEAR=1989
DGENRE=Jazz
TTITLE0=Count Down
TTITLE1=Skylight
TTITLE2=Pardon Me
TTITLE3=I Thought About You
TTITLE4=Blues For Wes
TTITLE5=Picture Window
TTITLE6=Autumn Leaves
TTITLE7=Once Again
TTITLE8=I Hear A Rhapsody
EXTD=YEAR: 1989
EXTT0=
EXTT1=
EXTT2=
EXTT3=
EXTT4=
EXTT5=
EXTT6=
EXTT7=
EXTT8=
PLAYORDER=
